<?xml version="1.0" encoding="UTF-8"?>
<svg id="Camada_3" data-name="Camada 3" xmlns="http://www.w3.org/2000/svg" viewBox="0 0 3929.37 740">
  <defs>
    <style>
      .cls-1 {
        fill: #fff;
      }
    </style>
  </defs>
  <g id="Camada_5" data-name="Camada 5">
    <g>
      <path class="cls-1" d="M19.78,673.76V102.05c0-23.74-7.91-48.47-19.78-60.34h103.86c-11.87,11.87-19.78,36.6-19.78,60.34v271.02h439.17V102.05c0-23.74-7.91-48.47-19.78-60.34h103.86c-11.87,11.87-19.78,36.6-19.78,60.34v571.72c0,23.74,7.91,48.47,19.78,60.34h-103.86c11.87-11.87,19.78-36.6,19.78-60.34v-280.91H84.08v280.91c0,23.74,7.91,48.47,19.78,60.34H0c11.87-11.87,19.78-36.6,19.78-60.34Z"/>
      <path class="cls-1" d="M751.6,673.76V102.05c0-23.74-7.91-48.47-19.78-60.34h489.62v109.79c-25.72-53.41-78.14-90.01-129.58-90.01h-275.97v311.58h226.51c39.57,0,80.12-19.78,99.9-50.45v120.67c-19.78-30.66-60.34-50.45-99.9-50.45h-226.51v321.47h285.86c51.44,0,103.86-36.6,129.58-91v110.78h-499.51c11.87-11.87,19.78-36.6,19.78-60.34Z"/>
      <path class="cls-1" d="M1366.02,673.76V102.05c0-23.74-7.91-48.47-19.78-60.34h103.86c-11.87,11.87-19.78,36.6-19.78,60.34v612.27h260.14c52.42,0,104.85-36.6,130.57-91v110.78h-474.78c11.87-11.87,19.78-36.6,19.78-60.34Z"/>
      <path class="cls-1" d="M2651.42,673.76V102.05c0-23.74-7.91-48.47-19.78-60.34h283.88c140.46,0,247.28,84.08,247.28,195.85,0,102.87-86.05,182.99-206.73,197.83,41.54,12.86,75.17,35.61,92.98,65.28l97.92,158.26c19.78,32.64,50.45,63.3,76.16,75.17h-77.15c-27.7-14.84-51.44-37.59-68.25-64.29l-104.85-171.12c-14.84-24.73-38.58-48.47-65.28-61.33h-191.89v236.4c0,23.74,7.91,48.47,19.78,60.34h-103.86c11.87-11.87,19.78-36.6,19.78-60.34ZM2715.71,61.49v356.09h188.92c114.74,0,189.91-70.23,189.91-178.04s-75.17-178.04-189.91-178.04h-188.92Z"/>
      <path class="cls-1" d="M3315.12,629.25L3573.28,41.71h34.62l268.05,613.26c15.83,36.6,36.6,68.25,53.41,79.13h-126.61c16.82-14.84,18.79-50.45.99-88.03l-53.41-123.64h-359.06l-47.48,108.8c-18.79,42.53-15.83,83.09,7.91,102.87h-108.8c20.77-10.88,47.48-48.47,72.21-104.85ZM3741.44,502.64l-170.13-393.67-172.11,393.67h342.24Z"/>
      <path class="cls-1" d="M2414.34,147.87c91.23,200.71,220.9,351.53,27.68,522.67-137.55,121.83-368.82,105.25-490.19-38.89-97.19-115.42-63.46-198.92-21.26-373.54,23.46-97.04,22.3-214.46,125.62-251.59,55.09-19.79,136.01,11.4,197.99,15.31,78.38,4.93,129.87,59.37,160.17,126.04ZM1972.35,431.22c25.81,179.92,128.82,302.81,323.73,268.67,208.98-36.61,223.73-204.51,138.3-368.68-52.42-100.72-150.72-276.3-274.6-290.61-177.77-20.54-204.91,268.73-187.42,390.63Z"/>
    </g>
  </g>
</svg>